<?xml version="1.0"?>
<!-- Converted with SVG Converter - Version 0.9.5 (Compiled Mon May 30 09:08:51 2011) - Copyright (C) 2011 Nokia -->
<svg xmlns="http://www.w3.org/2000/svg" width="96" x="0px" y="0px" version="1.1" viewBox="0 0 96 96" height="96" baseProfile="tiny" xmlns:xlink="http://www.w3.org/1999/xlink" id="svg2" xml:space="preserve">
 <metadata id="metadata4"/>
 <defs id="defs6">
  <linearGradient gradientTransform="matrix(1.025642,0,0,1.025642,8,8)" id="HIGHLIGHT_RIM_3_-1" y1="-7.7793" y2="133.27" x1="39" gradientUnits="userSpaceOnUse" x2="39">
   <stop offset="0" stop-color="#FFF" id="stop9"/>
   <stop offset="1" stop-color="#000" id="stop11"/>
  </linearGradient>
  <linearGradient gradientTransform="matrix(1.025642,0,0,1.025642,8,8)" id="linearGradient3024-94" y2="78.001" x1="39" gradientUnits="userSpaceOnUse" x2="39">
   <stop offset="0" stop-color="#7A7A7A" id="stop14"/>
   <stop offset="0.155" stop-color="#717171" id="stop16"/>
   <stop offset="0.4059" stop-color="#595959" id="stop18"/>
   <stop offset="0.72" stop-color="#323232" id="stop20"/>
   <stop offset="0.7455" stop-color="#2F2F2F" id="stop22"/>
  </linearGradient>
 </defs>
 <path style="fill:url(#linearGradient3024-94)" id="path26" d="M 88,48 C 88,77.63384 77.6359,88 48,88 18.3641,88 8,77.63384 8,48 8,18.36512 18.3641,8 48,8 77.6359,8 88,18.36512 88,48 z"/>
 <path style="fill:url(#HIGHLIGHT_RIM_3_-1);fill-opacity:0.25" id="path28" d="M 48,8 C 18.36512,8 8,18.36512 8,48 8,77.63282 18.36512,88 48,88 77.63692,88 88,77.63282 88,48 88,18.36512 77.63692,8 48,8 z m 0,79.02358 C 18.84206,87.02358 9,77.17538 9,48 9,18.82462 18.84206,8.977436 48,8.977436 77.15898,8.977436 87,18.82462 87,48 87,77.17538 77.15898,87.02358 48,87.02358 z"/>
 <g style="font-size:40px;font-style:normal;font-weight:normal;line-height:94.99999881%;letter-spacing:0px;word-spacing:0px;fill:#ffffff;fill-opacity:1;stroke:none;display:inline;font-family:Sans" id="text4587" transform="translate(8.000006,-7.9999995)">
  <path style="font-size:24px;font-style:italic;font-variant:normal;font-stretch:normal;text-align:center;line-height:94.99999881%;text-anchor:middle;fill:#ffffff;font-family:Palatino Linotype;-inkscape-font-specification:Palatino Linotype Italic" id="path3015" d="m 28.350098,53.352932 -0.105469,0.175781 c -0.26564,0.02344 -0.750014,0.156251 -1.453125,0.398438 -1.070325,0.359375 -1.896496,0.603515 -2.478516,0.732422 -0.582041,0.128905 -1.251962,0.193358 -2.009765,0.193359 -1.640632,-1e-6 -3.013678,-0.285156 -4.119141,-0.855469 -1.105472,-0.570311 -1.919925,-1.378904 -2.443359,-2.425781 -0.52344,-1.046871 -0.785158,-2.238276 -0.785157,-3.574219 -10e-7,-1.492179 0.253905,-2.9121 0.761719,-4.259765 0.50781,-1.347645 1.269528,-2.490222 2.285156,-3.427735 1.01562,-0.937485 2.087884,-1.630843 3.216797,-2.080078 1.128898,-0.449202 2.373037,-0.673811 3.732422,-0.673828 1.656237,1.7e-5 3.249986,0.30861 4.78125,0.925781 l 0.04687,0.128906 c -0.281266,0.843765 -0.507828,1.953139 -0.679687,3.328125 l -0.09375,0.09375 -0.492188,0 -0.09375,-0.09375 c -1.5e-5,-0.570299 -0.02736,-1.238267 -0.08203,-2.003906 -0.414077,-0.351547 -1.015639,-0.632797 -1.804688,-0.84375 -0.789074,-0.210922 -1.593761,-0.31639 -2.414062,-0.316406 -1.343759,1.6e-5 -2.54493,0.316422 -3.603516,0.949219 -1.058599,0.632826 -1.894536,1.660169 -2.507812,3.082031 -0.613285,1.421885 -0.919926,2.964852 -0.919922,4.628906 -4e-6,0.937506 0.113278,1.814458 0.339844,2.63086 0.226558,0.816409 0.630855,1.52344 1.21289,2.121093 0.582026,0.597658 1.244135,1.007814 1.986328,1.230469 0.74218,0.222657 1.550773,0.333985 2.425782,0.333984 1.289051,1e-6 2.378894,-0.253905 3.269531,-0.761718 l 0.433594,-2.296875 c 0.117174,-0.664058 0.175768,-1.10937 0.175781,-1.335938 -1.3e-5,-0.20312 -0.06251,-0.357416 -0.1875,-0.46289 -0.125013,-0.105464 -0.433607,-0.173823 -0.925781,-0.205079 l -1.59375,-0.128906 -0.09375,-0.09375 0.07031,-0.515625 0.117188,-0.09375 0.410156,0.01172 c 1.374987,0.04688 2.269518,0.07032 2.683594,0.07031 0.874985,7e-6 1.808578,-0.01171 2.800781,-0.03516 l 0.08203,0.09375 -0.04687,0.457031 -0.09375,0.105469 c -0.484391,0.08594 -0.791031,0.156256 -0.919922,0.210938 -0.128922,0.05469 -0.218765,0.125005 -0.269531,0.210937 -0.0508,0.08594 -0.119156,0.324224 -0.205078,0.714844 l -0.140625,0.667969 c -0.06252,0.304691 -0.136734,0.750003 -0.222656,1.335937 -0.08595,0.58594 -0.128921,1.007814 -0.128907,1.265625 -1.4e-5,0.117189 0.02733,0.246095 0.08203,0.386719 z"/>
  <path style="font-size:24px;font-style:italic;font-variant:normal;font-stretch:normal;text-align:center;line-height:94.99999881%;text-anchor:middle;fill:#ffffff;font-family:Palatino Linotype;-inkscape-font-specification:Palatino Linotype Italic" id="path3017" d="m 30.729004,54.466213 -0.08203,-0.09375 0.08203,-0.515625 0.105469,-0.08203 0.679687,-0.105469 c 0.195312,-0.03125 0.328124,-0.06641 0.398438,-0.105469 0.07031,-0.03906 0.14453,-0.105467 0.222656,-0.199218 0.07812,-0.09375 0.253905,-0.343749 0.527344,-0.75 0.273435,-0.406248 0.63281,-0.964841 1.078125,-1.675782 l 0.257812,-0.375 8.109375,-12.832031 1.101563,0 1.96875,14.15625 c 0.10936,0.789064 0.207016,1.265626 0.292968,1.429688 0.08592,0.164063 0.214829,0.265626 0.386719,0.304687 0.17186,0.03906 0.617172,0.08984 1.335938,0.152344 l 0.07031,0.09375 -0.09375,0.503906 -0.105469,0.09375 c -1.093765,-0.0625 -2.03517,-0.09375 -2.824218,-0.09375 -0.531263,0 -1.464856,0.03125 -2.800782,0.09375 l -0.08203,-0.09375 0.08203,-0.503906 0.105469,-0.09375 c 0.968739,-0.03906 1.521472,-0.09766 1.658203,-0.175781 0.136707,-0.07812 0.205066,-0.246093 0.205078,-0.503907 -1.2e-5,-0.0625 -0.0547,-0.66406 -0.164062,-1.804687 l -0.457031,-3.46875 -5.847657,0 -1.652343,2.742187 c -0.156255,0.257817 -0.404301,0.695316 -0.744141,1.3125 -0.339847,0.61719 -0.535159,0.990236 -0.585937,1.119141 -0.05079,0.128908 -0.07617,0.232423 -0.07617,0.310547 -3e-6,0.132813 0.07617,0.232423 0.228515,0.298828 0.152341,0.06641 0.724606,0.119141 1.716797,0.158203 l 0.07031,0.09375 -0.08203,0.515625 -0.105468,0.09375 c -0.906254,-0.0625 -1.757816,-0.09375 -2.554688,-0.09375 -0.656251,0 -1.464844,0.03125 -2.425781,0.09375 z m 6.796875,-7.558594 5.15625,0 -0.890625,-6.808593 z"/>
  <path style="font-size:24px;font-style:italic;font-variant:normal;font-stretch:normal;text-align:center;line-height:94.99999881%;text-anchor:middle;fill:#ffffff;font-family:Palatino Linotype;-inkscape-font-specification:Palatino Linotype Italic" id="path3019" d="m 63.037598,53.352932 -0.105469,0.175781 c -0.26564,0.02344 -0.750014,0.156251 -1.453125,0.398438 -1.070325,0.359375 -1.896496,0.603515 -2.478516,0.732422 -0.582041,0.128905 -1.251962,0.193358 -2.009765,0.193359 -1.640632,-1e-6 -3.013678,-0.285156 -4.119141,-0.855469 -1.105472,-0.570311 -1.919925,-1.378904 -2.443359,-2.425781 -0.52344,-1.046871 -0.785158,-2.238276 -0.785157,-3.574219 -10e-7,-1.492179 0.253905,-2.9121 0.761719,-4.259765 0.50781,-1.347645 1.269528,-2.490222 2.285156,-3.427735 1.01562,-0.937485 2.087884,-1.630843 3.216797,-2.080078 1.128898,-0.449202 2.373037,-0.673811 3.732422,-0.673828 1.656237,1.7e-5 3.249986,0.30861 4.78125,0.925781 l 0.04687,0.128906 c -0.281266,0.843765 -0.507828,1.953139 -0.679687,3.328125 l -0.09375,0.09375 -0.492188,0 -0.09375,-0.09375 c -1.5e-5,-0.570299 -0.02736,-1.238267 -0.08203,-2.003906 -0.414077,-0.351547 -1.015639,-0.632797 -1.804688,-0.84375 -0.789074,-0.210922 -1.593761,-0.31639 -2.414062,-0.316406 -1.343759,1.6e-5 -2.54493,0.316422 -3.603516,0.949219 -1.058599,0.632826 -1.894536,1.660169 -2.507812,3.082031 -0.613285,1.421885 -0.919926,2.964852 -0.919922,4.628906 -4e-6,0.937506 0.113278,1.814458 0.339844,2.63086 0.226558,0.816409 0.630855,1.52344 1.21289,2.121093 0.582026,0.597658 1.244135,1.007814 1.986328,1.230469 0.74218,0.222657 1.550773,0.333985 2.425782,0.333984 1.289051,1e-6 2.378894,-0.253905 3.269531,-0.761718 l 0.433594,-2.296875 c 0.117174,-0.664058 0.175768,-1.10937 0.175781,-1.335938 -1.3e-5,-0.20312 -0.06251,-0.357416 -0.1875,-0.46289 -0.125013,-0.105464 -0.433607,-0.173823 -0.925781,-0.205079 l -1.59375,-0.128906 -0.09375,-0.09375 0.07031,-0.515625 0.117188,-0.09375 0.410156,0.01172 c 1.374987,0.04688 2.269518,0.07032 2.683594,0.07031 0.874985,7e-6 1.808578,-0.01171 2.800781,-0.03516 l 0.08203,0.09375 -0.04687,0.457031 -0.09375,0.105469 c -0.484391,0.08594 -0.791031,0.156256 -0.919922,0.210938 -0.128922,0.05469 -0.218765,0.125005 -0.269531,0.210937 -0.0508,0.08594 -0.119156,0.324224 -0.205078,0.714844 l -0.140625,0.667969 c -0.06252,0.304691 -0.136734,0.750003 -0.222656,1.335937 -0.08595,0.58594 -0.128921,1.007814 -0.128907,1.265625 -1.4e-5,0.117189 0.02733,0.246095 0.08203,0.386719 z"/>
  <path style="font-size:18px;font-style:italic;font-variant:normal;font-stretch:normal;text-align:center;line-height:94.99999881%;text-anchor:middle;fill:#ffffff;font-family:Palatino Linotype;-inkscape-font-specification:Palatino Linotype Italic" id="path3021" d="m 14.770996,74.145114 -0.07031,-0.06152 0.04394,-0.37793 0.07031,-0.07031 c 0.328124,-0.05859 0.518554,-0.102539 0.571289,-0.131836 0.05273,-0.0293 0.109862,-0.08496 0.171387,-0.166992 0.06152,-0.08203 0.13037,-0.26953 0.206543,-0.5625 0.07617,-0.292967 0.269529,-1.274412 0.580078,-2.944336 l 0.536133,-3.005859 0.316406,-1.924805 c 0.193356,-1.30663 0.290036,-2.05077 0.290039,-2.232422 -3e-6,-0.152332 -0.03077,-0.256336 -0.09229,-0.312012 -0.06153,-0.05565 -0.183108,-0.09374 -0.364746,-0.114258 -0.181643,-0.0205 -0.500979,-0.03954 -0.958008,-0.05713 l -0.06152,-0.0791 0.04395,-0.369141 0.08789,-0.07031 c 0.5332,0.04689 1.321286,0.07032 2.364258,0.07031 l 2.214843,-0.03516 c 1.224602,1.2e-5 2.099113,0.203626 2.623536,0.61084 0.524404,0.407238 0.786611,0.985851 0.786621,1.73584 -10e-6,0.416025 -0.08058,0.808603 -0.2417,1.177734 -0.161142,0.369149 -0.407236,0.716317 -0.738281,1.041504 -0.331063,0.325203 -0.666512,0.578621 -1.006347,0.760254 -0.339852,0.181647 -0.755867,0.363288 -1.248047,0.544922 0.791008,0.117194 1.366691,0.24903 1.72705,0.395508 0.360343,0.14649 0.657706,0.402837 0.89209,0.769043 0.234366,0.366216 0.351553,0.801274 0.351563,1.305175 -10e-6,0.451176 -0.09669,0.899418 -0.290039,1.344727 -0.193369,0.445315 -0.46583,0.839357 -0.817383,1.182129 -0.351571,0.342774 -0.786629,0.656251 -1.305176,0.94043 -0.518561,0.28418 -0.941901,0.461425 -1.270019,0.531738 -0.328131,0.07031 -0.791021,0.105469 -1.388672,0.105469 -0.398442,0 -0.981449,-0.01172 -1.749024,-0.03516 -0.509768,-0.01758 -0.887697,-0.02637 -1.133789,-0.02637 -0.38672,0 -0.767579,0.02051 -1.142578,0.06152 z m 3.357422,-6.802735 c 0.398433,0.02344 0.714839,0.03516 0.949219,0.03516 0.574213,7e-6 1.050287,-0.05712 1.428222,-0.171386 0.377923,-0.114251 0.73095,-0.306145 1.059082,-0.575684 0.328118,-0.269523 0.588859,-0.609367 0.782227,-1.019531 0.193351,-0.410147 0.29003,-0.8496 0.290039,-1.318359 -9e-6,-0.667959 -0.209481,-1.160146 -0.628418,-1.476563 -0.418953,-0.316395 -0.988776,-0.474598 -1.709473,-0.474609 -0.398443,1.1e-5 -0.823247,0.0381 -1.274414,0.114257 -0.351567,1.634776 -0.650395,3.263681 -0.896484,4.886719 z m -0.94043,5.915039 c 0.556637,0.146485 1.215816,0.219727 1.977539,0.219727 0.685541,0 1.248041,-0.121581 1.6875,-0.364746 0.439446,-0.243163 0.785149,-0.625487 1.03711,-1.146973 0.251945,-0.521482 0.377921,-1.083981 0.377929,-1.6875 -8e-6,-0.486324 -0.09376,-0.900874 -0.28125,-1.243652 -0.187507,-0.342768 -0.483405,-0.599116 -0.887695,-0.769043 -0.404303,-0.169916 -1.037115,-0.254877 -1.898437,-0.254883 -0.398443,6e-6 -0.79688,0.02051 -1.195313,0.06152 l -0.246094,1.441407 -0.360351,2.197265 c -0.111332,0.67383 -0.181644,1.189455 -0.210938,1.546875 z"/>
  <path style="font-size:18px;font-style:italic;font-variant:normal;font-stretch:normal;text-align:center;line-height:94.99999881%;text-anchor:middle;fill:#ffffff;font-family:Palatino Linotype;-inkscape-font-specification:Palatino Linotype Italic" id="path3023" d="m 26.117676,69.319918 c -1e-6,-0.832025 0.118651,-1.702142 0.355957,-2.610351 0.237303,-0.908195 0.669431,-1.779776 1.296387,-2.614746 0.626949,-0.83495 1.412105,-1.48827 2.355468,-1.959961 0.943354,-0.471668 2.030267,-0.707507 3.260742,-0.70752 1.04296,1.3e-5 1.942373,0.174329 2.698243,0.522949 0.755847,0.348645 1.352038,0.889172 1.788574,1.621582 0.43651,0.732432 0.654772,1.664072 0.654785,2.794922 -1.3e-5,1.523444 -0.363294,2.947271 -1.089844,4.271485 -0.726574,1.324221 -1.649425,2.289552 -2.768554,2.895996 -1.11915,0.606445 -2.314461,0.909667 -3.585938,0.909668 -0.685552,-1e-6 -1.338872,-0.101075 -1.959961,-0.303223 -0.621097,-0.202148 -1.166018,-0.533203 -1.634765,-0.993164 -0.468752,-0.45996 -0.814455,-1.020994 -1.03711,-1.683105 -0.222657,-0.662107 -0.333985,-1.37695 -0.333984,-2.144532 z m 1.573242,-0.09668 c -3e-6,0.931644 0.136228,1.727053 0.408691,2.38623 0.272458,0.659182 0.71777,1.167482 1.335938,1.524902 0.618159,0.357423 1.366693,0.536134 2.245605,0.536133 1.101555,10e-7 2.033195,-0.279784 2.794922,-0.839355 0.761709,-0.559569 1.363759,-1.451658 1.806153,-2.67627 0.442371,-1.224604 0.663562,-2.443353 0.663574,-3.65625 -1.2e-5,-0.67382 -0.07618,-1.267081 -0.228516,-1.779785 -0.152355,-0.512685 -0.407238,-0.972646 -0.764648,-1.379883 -0.357433,-0.407215 -0.79835,-0.710438 -1.322754,-0.909668 -0.524423,-0.199207 -1.100106,-0.298816 -1.727051,-0.298828 -1.031257,1.2e-5 -1.92774,0.256359 -2.689453,0.769043 -0.761723,0.512706 -1.372562,1.35792 -1.83252,2.535645 -0.459963,1.177741 -0.689944,2.440436 -0.689941,3.788086 z"/>
  <path style="font-size:18px;font-style:italic;font-variant:normal;font-stretch:normal;text-align:center;line-height:94.99999881%;text-anchor:middle;fill:#ffffff;font-family:Palatino Linotype;-inkscape-font-specification:Palatino Linotype Italic" id="path3025" d="m 40.109863,69.319918 c -10e-7,-0.832025 0.118651,-1.702142 0.355957,-2.610351 0.237303,-0.908195 0.669432,-1.779776 1.296387,-2.614746 0.62695,-0.83495 1.412105,-1.48827 2.355469,-1.959961 0.943353,-0.471668 2.030266,-0.707507 3.260742,-0.70752 1.042959,1.3e-5 1.942373,0.174329 2.698242,0.522949 0.755848,0.348645 1.352039,0.889172 1.788574,1.621582 0.436511,0.732432 0.654772,1.664072 0.654786,2.794922 -1.4e-5,1.523444 -0.363295,2.947271 -1.089844,4.271485 -0.726574,1.324221 -1.649425,2.289552 -2.768555,2.895996 -1.119149,0.606445 -2.31446,0.909667 -3.585937,0.909668 -0.685553,-1e-6 -1.338872,-0.101075 -1.959961,-0.303223 -0.621098,-0.202148 -1.166019,-0.533203 -1.634766,-0.993164 -0.468752,-0.45996 -0.814455,-1.020994 -1.037109,-1.683105 -0.222658,-0.662107 -0.333986,-1.37695 -0.333985,-2.144532 z m 1.573242,-0.09668 c -2e-6,0.931644 0.136228,1.727053 0.408692,2.38623 0.272458,0.659182 0.71777,1.167482 1.335937,1.524902 0.618159,0.357423 1.366694,0.536134 2.245606,0.536133 1.101555,10e-7 2.033194,-0.279784 2.794922,-0.839355 0.761708,-0.559569 1.363758,-1.451658 1.806152,-2.67627 0.442371,-1.224604 0.663562,-2.443353 0.663574,-3.65625 -1.2e-5,-0.67382 -0.07618,-1.267081 -0.228515,-1.779785 -0.152356,-0.512685 -0.407238,-0.972646 -0.764649,-1.379883 -0.357432,-0.407215 -0.79835,-0.710438 -1.322754,-0.909668 -0.524423,-0.199207 -1.100106,-0.298816 -1.72705,-0.298828 -1.031257,1.2e-5 -1.927741,0.256359 -2.689454,0.769043 -0.761723,0.512706 -1.372562,1.35792 -1.832519,2.535645 -0.459964,1.177741 -0.689944,2.440436 -0.689942,3.788086 z"/>
  <path style="font-size:18px;font-style:italic;font-variant:normal;font-stretch:normal;text-align:center;line-height:94.99999881%;text-anchor:middle;fill:#ffffff;font-family:Palatino Linotype;-inkscape-font-specification:Palatino Linotype Italic" id="path3027" d="m 55.270996,61.734957 0.0791,-0.07031 2.460937,0.07031 c 0.556635,1.3e-5 1.157221,-0.02343 1.801758,-0.07031 l 0.06152,0.07031 -0.02637,0.37793 -0.0791,0.07031 c -0.597663,0.03517 -0.94776,0.07032 -1.050293,0.105468 -0.102545,0.03517 -0.19483,0.183117 -0.276856,0.443848 -0.08204,0.260753 -0.240239,1.032725 -0.474609,2.315918 l -0.500977,2.750976 c 0.89062,-0.662102 1.924799,-1.593742 3.102539,-2.794921 l 2.109375,-2.153321 c 0.216788,-0.228504 0.345694,-0.395496 0.386719,-0.500976 0.04101,-0.105457 0.06444,-0.310535 0.07031,-0.615235 l 0.07031,-0.07031 c 0.398427,0.04103 0.785146,0.06154 1.160156,0.06152 0.27538,1.3e-5 0.629871,-0.0205 1.063477,-0.06152 l 0.07031,0.07031 -0.03516,0.37793 -0.07031,0.07031 c -0.357434,0.0059 -0.619641,0.04982 -0.786621,0.131835 -0.167004,0.08204 -0.452648,0.313488 -0.856934,0.694336 l -4.816406,4.535157 3.919922,4.816406 c 0.445302,0.544923 0.757313,0.880372 0.936035,1.006348 0.1787,0.125977 0.511219,0.212402 0.997558,0.259277 l 0.05273,0.07031 -0.03516,0.386719 -0.0791,0.07031 c -0.427746,-0.04687 -0.817394,-0.07031 -1.168945,-0.07031 -0.222667,0 -0.612315,0.02344 -1.168946,0.07031 -1.388679,-1.998045 -3.041021,-4.042965 -4.957031,-6.134766 -0.544925,3.111331 -0.817386,4.851564 -0.817383,5.220703 -3e-6,0.10547 0.06006,0.19043 0.180176,0.254883 0.120114,0.06445 0.537594,0.111329 1.252441,0.140625 l 0.05274,0.07031 -0.04395,0.37793 -0.0791,0.07031 -2.311524,-0.07031 c -0.603517,0 -1.253907,0.02344 -1.951171,0.07031 l -0.06152,-0.07031 0.02637,-0.37793 0.08789,-0.07031 c 0.703124,-0.01172 1.103026,-0.102539 1.199707,-0.272461 0.09668,-0.169921 0.300291,-1.092772 0.61084,-2.768555 l 0.571289,-3.120117 0.518555,-3.041015 c 0.158199,-0.925771 0.237301,-1.532216 0.237304,-1.819336 -3e-6,-0.0996 -0.05274,-0.193348 -0.158203,-0.28125 -0.105472,-0.08788 -0.524417,-0.137684 -1.256836,-0.149414 l -0.06152,-0.07031 z"/>
 </g>
</svg>
