<?xml version="1.0"?>
<!-- Converted with SVG Converter - Version 0.9.5 (Compiled Mon May 30 09:08:51 2011) - Copyright (C) 2011 Nokia -->
<svg xmlns="http://www.w3.org/2000/svg" width="96" x="0px" y="0px" version="1.1" viewBox="0 0 96 96" height="96" baseProfile="tiny" xmlns:xlink="http://www.w3.org/1999/xlink" id="svg2" xml:space="preserve">
 <metadata id="metadata4"/>
 <defs id="defs6">
  <linearGradient gradientTransform="matrix(1.025642,0,0,1.025642,8,8)" id="HIGHLIGHT_RIM_3_-1" y1="-7.7793" y2="133.27" x1="39" gradientUnits="userSpaceOnUse" x2="39">
   <stop offset="0" stop-color="#FFF" id="stop9"/>
   <stop offset="1" stop-color="#000" id="stop11"/>
  </linearGradient>
  <linearGradient gradientTransform="matrix(1.025642,0,0,1.025642,8,8)" id="linearGradient3024-94" y2="78.001" x1="39" gradientUnits="userSpaceOnUse" x2="39">
   <stop offset="0" stop-color="#7A7A7A" id="stop14"/>
   <stop offset="0.155" stop-color="#717171" id="stop16"/>
   <stop offset="0.4059" stop-color="#595959" id="stop18"/>
   <stop offset="0.72" stop-color="#323232" id="stop20"/>
   <stop offset="0.7455" stop-color="#2F2F2F" id="stop22"/>
  </linearGradient>
 </defs>
 <path style="fill:url(#linearGradient3024-94)" id="path26" d="M 88,48 C 88,77.63384 77.6359,88 48,88 18.3641,88 8,77.63384 8,48 8,18.36512 18.3641,8 48,8 77.6359,8 88,18.36512 88,48 z"/>
 <path style="fill:url(#HIGHLIGHT_RIM_3_-1);fill-opacity:0.25" id="path28" d="M 48,8 C 18.36512,8 8,18.36512 8,48 8,77.63282 18.36512,88 48,88 77.63692,88 88,77.63282 88,48 88,18.36512 77.63692,8 48,8 z m 0,79.02358 C 18.84206,87.02358 9,77.17538 9,48 9,18.82462 18.84206,8.977436 48,8.977436 77.15898,8.977436 87,18.82462 87,48 87,77.17538 77.15898,87.02358 48,87.02358 z"/>
 <g style="font-size:40px;font-style:normal;font-weight:normal;line-height:125%;letter-spacing:0px;word-spacing:0px;fill:#ffffff;font-family:Sans" id="text30" transform="matrix(1.025642,0,0,1.025642,-1.230816,-1.230816)">
  <path style="font-size:24px;font-variant:normal;font-stretch:normal;fill:#ffffff;font-family:Meiryo UI" id="path3019" d="m 38.677734,55.505859 c -2.531263,1.101563 -4.601574,1.652344 -6.210937,1.652344 -2.812507,0 -4.998052,-0.796874 -6.556641,-2.390625 -1.558595,-1.593746 -2.337891,-3.859369 -2.33789,-6.796875 -10e-7,-2.851551 0.792966,-5.085923 2.378906,-6.703125 1.585932,-1.61717 3.757805,-2.425763 6.515625,-2.425781 2.03905,1.8e-5 4.105455,0.535174 6.199219,1.605469 l 0,2.566406 -0.164063,0 C 36.587877,41.459 34.45116,40.681657 32.091797,40.681641 c -1.937508,1.6e-5 -3.462897,0.648453 -4.576172,1.945312 -1.113285,1.296888 -1.669925,3.054699 -1.669922,5.273438 -3e-6,2.320319 0.580074,4.13477 1.740234,5.443359 1.16015,1.308596 2.751946,1.962892 4.775391,1.962891 1.484364,10e-7 2.871081,-0.281249 4.160156,-0.84375 l 0,-4.546875 -4.582031,0 0,-1.898438 6.738281,0 z"/>
  <path style="font-size:24px;font-variant:normal;font-stretch:normal;fill:#ffffff;font-family:Meiryo UI" id="path3021" d="m 51.216797,49.962891 -3.175781,-8.707032 -3.164063,8.707032 z m 2.472656,6.855468 -1.816406,-5.039062 -7.664063,0 -1.816406,5.039062 -2.214844,0 6.539063,-17.660156 2.777344,0 6.527343,17.660156 z"/>
  <path style="font-size:24px;font-variant:normal;font-stretch:normal;fill:#ffffff;font-family:Meiryo UI" id="path3023" d="m 72.427734,55.505859 c -2.531263,1.101563 -4.601574,1.652344 -6.210937,1.652344 -2.812507,0 -4.998052,-0.796874 -6.556641,-2.390625 -1.558595,-1.593746 -2.337891,-3.859369 -2.33789,-6.796875 -10e-7,-2.851551 0.792966,-5.085923 2.378906,-6.703125 1.585932,-1.61717 3.757805,-2.425763 6.515625,-2.425781 2.03905,1.8e-5 4.105455,0.535174 6.199219,1.605469 l 0,2.566406 -0.164063,0 C 70.337877,41.459 68.20116,40.681657 65.841797,40.681641 c -1.937508,1.6e-5 -3.462897,0.648453 -4.576172,1.945312 -1.113285,1.296888 -1.669925,3.054699 -1.669922,5.273438 -3e-6,2.320319 0.580074,4.13477 1.740234,5.443359 1.16015,1.308596 2.751946,1.962892 4.775391,1.962891 1.484364,10e-7 2.871081,-0.281249 4.160156,-0.84375 l 0,-4.546875 -4.582031,0 0,-1.898438 6.738281,0 z"/>
 </g>
</svg>
