<?xml version="1.0" encoding="UTF-8" standalone="no"?>
<!-- Generator: Adobe Illustrator 15.0.0, SVG Export Plug-In . SVG Version: 6.00 Build 0)  -->

<svg
   xmlns:dc="http://purl.org/dc/elements/1.1/"
   xmlns:cc="http://creativecommons.org/ns#"
   xmlns:rdf="http://www.w3.org/1999/02/22-rdf-syntax-ns#"
   xmlns:svg="http://www.w3.org/2000/svg"
   xmlns="http://www.w3.org/2000/svg"
   xmlns:sodipodi="http://sodipodi.sourceforge.net/DTD/sodipodi-0.dtd"
   xmlns:inkscape="http://www.inkscape.org/namespaces/inkscape"
   version="1.1"
   x="0px"
   y="0px"
   width="30px"
   height="30px"
   viewBox="0 0 30 30"
   enable-background="new 0 0 30 30"
   xml:space="preserve"
   id="svg2"
   inkscape:version="0.48.2 r9819"
   sodipodi:docname="instant_messenger_chat.svg"><sodipodi:namedview
   pagecolor="#ffffff"
   bordercolor="#666666"
   borderopacity="1"
   objecttolerance="10"
   gridtolerance="10"
   guidetolerance="10"
   inkscape:pageopacity="0"
   inkscape:pageshadow="2"
   inkscape:window-width="640"
   inkscape:window-height="480"
   id="namedview19"
   showgrid="false"
   inkscape:zoom="7.8666667"
   inkscape:cx="15"
   inkscape:cy="15"
   inkscape:window-x="0"
   inkscape:window-y="0"
   inkscape:window-maximized="0"
   inkscape:current-layer="svg2" /><metadata
   id="metadata23"><rdf:RDF><cc:Work
       rdf:about=""><dc:format>image/svg+xml</dc:format><dc:type
         rdf:resource="http://purl.org/dc/dcmitype/StillImage" /><dc:title></dc:title></cc:Work></rdf:RDF></metadata><defs
   id="defs21" />
<g
   id="DO_NOT_EDIT_-_BOUNDING_BOX">
	<rect
   height="30"
   width="30"
   fill="none"
   id="BOUNDING_BOX" />
</g>
<g
   id="PLACE_YOUR_GRAPHIC_HERE">
	<g
   id="g7">
		<path
   id="path9"
   d="M23,5H7c-2.75,0-5,2.25-5,5v8c0,2.75,2.25,5,5,5h18l3,3V10C28,7.25,25.75,5,23,5z M19,19H8    c-0.553,0-1-0.447-1-1s0.447-1,1-1h11c0.553,0,1,0.447,1,1S19.553,19,19,19z M22,15H8c-0.553,0-1-0.447-1-1s0.447-1,1-1h14    c0.553,0,1,0.447,1,1S22.553,15,22,15z M22,11H8c-0.553,0-1-0.447-1-1s0.447-1,1-1h14c0.553,0,1,0.447,1,1S22.553,11,22,11z"
   opacity="0.3" />
		<rect
   id="rect11"
   height="30"
   width="30"
   fill="none"
   y="0" />
		<path
   id="path13"
   d="M28,28c-0.26,0-0.516-0.102-0.707-0.293L24.586,25H7c-3.309,0-6-2.691-6-6v-8c0-3.309,2.691-6,6-6h16    c3.309,0,6,2.691,6,6v16c0,0.404-0.243,0.77-0.617,0.924C28.259,27.976,28.129,28,28,28z"
   opacity="0.15" />
		<path
   id="path15"
   d="M23,6H7c-2.75,0-5,2.25-5,5v8c0,2.75,2.25,5,5,5h18l3,3V11C28,8.25,25.75,6,23,6z M19,20H8    c-0.553,0-1-0.447-1-1s0.447-1,1-1h11c0.553,0,1,0.447,1,1S19.553,20,19,20z M22,16H8c-0.553,0-1-0.447-1-1s0.447-1,1-1h14    c0.553,0,1,0.447,1,1S22.553,16,22,16z M22,12H8c-0.553,0-1-0.447-1-1s0.447-1,1-1h14c0.553,0,1,0.447,1,1S22.553,12,22,12z"
   opacity="0.15" />
		<path
   id="path17"
   d="M23,6H7c-2.75,0-5,2.25-5,5v8c0,2.75,2.25,5,5,5h18l3,3V11C28,8.25,25.75,6,23,6z M19,20H8    c-0.553,0-1-0.447-1-1s0.447-1,1-1h11c0.553,0,1,0.447,1,1S19.553,20,19,20z M22,16H8c-0.553,0-1-0.447-1-1s0.447-1,1-1h14    c0.553,0,1,0.447,1,1S22.553,16,22,16z M22,12H8c-0.553,0-1-0.447-1-1s0.447-1,1-1h14c0.553,0,1,0.447,1,1S22.553,12,22,12z"
   fill="#000000" />
	</g>
</g>
</svg>