<?xml version="1.0" encoding="UTF-8" standalone="no"?>
<!-- Generator: Adobe Illustrator 15.0.0, SVG Export Plug-In . SVG Version: 6.00 Build 0)  -->

<svg
   xmlns:dc="http://purl.org/dc/elements/1.1/"
   xmlns:cc="http://creativecommons.org/ns#"
   xmlns:rdf="http://www.w3.org/1999/02/22-rdf-syntax-ns#"
   xmlns:svg="http://www.w3.org/2000/svg"
   xmlns="http://www.w3.org/2000/svg"
   xmlns:sodipodi="http://sodipodi.sourceforge.net/DTD/sodipodi-0.dtd"
   xmlns:inkscape="http://www.inkscape.org/namespaces/inkscape"
   version="1.1"
   x="0px"
   y="0px"
   width="30px"
   height="30px"
   viewBox="0 0 30 30"
   enable-background="new 0 0 30 30"
   xml:space="preserve"
   id="svg2"
   inkscape:version="0.48.4 r9939"
   sodipodi:docname="down.svg"><sodipodi:namedview
     pagecolor="#ffffff"
     bordercolor="#666666"
     borderopacity="1"
     objecttolerance="10"
     gridtolerance="10"
     guidetolerance="10"
     inkscape:pageopacity="0"
     inkscape:pageshadow="2"
     inkscape:window-width="640"
     inkscape:window-height="480"
     id="namedview15"
     showgrid="false"
     inkscape:zoom="7.8666667"
     inkscape:cx="15"
     inkscape:cy="15"
     inkscape:window-x="75"
     inkscape:window-y="34"
     inkscape:window-maximized="0"
     inkscape:current-layer="svg2" /><metadata
     id="metadata19"><rdf:RDF><cc:Work
         rdf:about=""><dc:format>image/svg+xml</dc:format><dc:type
           rdf:resource="http://purl.org/dc/dcmitype/StillImage" /><dc:title></dc:title></cc:Work></rdf:RDF></metadata><defs
     id="defs17" /><g
     id="DO_NOT_EDIT_-_BOUNDING_BOX"><rect
       height="30"
       width="30"
       fill="none"
       id="BOUNDING_BOX" /></g><g
     id="PLACE_YOUR_GRAPHIC_HERE"><path
       id="path7"
       d="M18.5,12V2c0-0.549-0.451-1-1-1h-5c-0.55,0-1,0.451-1,1v10H6l9,15l9-15H18.5z"
       opacity="0.3" /><path
       id="path9"
       d="M15,29c-0.351,0-0.677-0.185-0.857-0.485l-9-15c-0.186-0.309-0.19-0.694-0.013-1.007   C5.307,12.194,5.64,12,6,12h4.5V3c0-1.103,0.897-2,2-2h5c1.103,0,2,0.897,2,2v9H24c0.36,0,0.692,0.194,0.87,0.507   s0.173,0.698-0.013,1.007l-9,15C15.677,28.815,15.351,29,15,29z"
       opacity="0.15" /><path
       id="path11"
       d="M18.5,13V3c0-0.549-0.451-1-1-1h-5c-0.55,0-1,0.451-1,1v10H6l9,15l9-15H18.5z"
       opacity="0.15" /><path
       id="path13"
       d="M18.5,13V3c0-0.549-0.451-1-1-1h-5c-0.55,0-1,0.451-1,1v10H6l9,15l9-15H18.5z"
       fill="#000000" /></g></svg>