<?xml version="1.0" encoding="UTF-8" standalone="no"?>
<!-- Generator: Adobe Illustrator 15.0.0, SVG Export Plug-In . SVG Version: 6.00 Build 0)  -->

<svg
   xmlns:dc="http://purl.org/dc/elements/1.1/"
   xmlns:cc="http://creativecommons.org/ns#"
   xmlns:rdf="http://www.w3.org/1999/02/22-rdf-syntax-ns#"
   xmlns:svg="http://www.w3.org/2000/svg"
   xmlns="http://www.w3.org/2000/svg"
   xmlns:sodipodi="http://sodipodi.sourceforge.net/DTD/sodipodi-0.dtd"
   xmlns:inkscape="http://www.inkscape.org/namespaces/inkscape"
   version="1.1"
   x="0px"
   y="0px"
   width="30px"
   height="30px"
   viewBox="0 0 30 30"
   enable-background="new 0 0 30 30"
   xml:space="preserve"
   id="svg2"
   inkscape:version="0.48.4 r9939"
   sodipodi:docname="up.svg"><sodipodi:namedview
     pagecolor="#ffffff"
     bordercolor="#666666"
     borderopacity="1"
     objecttolerance="10"
     gridtolerance="10"
     guidetolerance="10"
     inkscape:pageopacity="0"
     inkscape:pageshadow="2"
     inkscape:window-width="640"
     inkscape:window-height="480"
     id="namedview19"
     showgrid="false"
     inkscape:zoom="7.8666667"
     inkscape:cx="15"
     inkscape:cy="15"
     inkscape:window-x="75"
     inkscape:window-y="34"
     inkscape:window-maximized="0"
     inkscape:current-layer="svg2" /><metadata
     id="metadata23"><rdf:RDF><cc:Work
         rdf:about=""><dc:format>image/svg+xml</dc:format><dc:type
           rdf:resource="http://purl.org/dc/dcmitype/StillImage" /><dc:title></dc:title></cc:Work></rdf:RDF></metadata><defs
     id="defs21" /><g
     id="DO_NOT_EDIT_-_BOUNDING_BOX"><rect
       height="30"
       width="30"
       fill="none"
       id="BOUNDING_BOX" /></g><g
     id="PLACE_YOUR_GRAPHIC_HERE"><g
       id="g7"><path
         id="path9"
         d="M15,1L6,16h5.5v10c0,0.549,0.45,1,1,1h5c0.549,0,1-0.451,1-1V16H24L15,1z"
         opacity="0.3" /><path
         id="path11"
         d="M12.5,29c-1.103,0-2-0.897-2-2v-9H6c-0.36,0-0.693-0.193-0.87-0.507c-0.178-0.314-0.173-0.699,0.013-1.008    l9-15C14.323,1.184,14.649,1,15,1s0.677,0.184,0.857,0.485l9,15c0.186,0.309,0.19,0.693,0.013,1.008C24.692,17.807,24.36,18,24,18    h-4.5v9c0,1.103-0.897,2-2,2H12.5z"
         opacity="0.15" /><path
         id="path13"
         d="M15,2L6,17h5.5v10c0,0.549,0.45,1,1,1h5c0.549,0,1-0.451,1-1V17H24L15,2z"
         opacity="0.15" /><path
         id="path15"
         d="M15,2L6,17h5.5v10c0,0.549,0.45,1,1,1h5c0.549,0,1-0.451,1-1V17H24L15,2z"
         fill="#000000" /><rect
         id="rect17"
         height="30"
         width="30"
         fill="none" /></g></g></svg>